<?xml version="1.0" standalone="no"?>
<!DOCTYPE svg PUBLIC "-//W3C//DTD SVG 20010904//EN"
 "http://www.w3.org/TR/2001/REC-SVG-20010904/DTD/svg10.dtd">
<svg version="1.0" xmlns="http://www.w3.org/2000/svg"
 width="128.000000pt" height="128.000000pt" viewBox="0 0 128.000000 128.000000"
 preserveAspectRatio="xMidYMid meet">
<metadata>
Created by potrace 1.16, written by Peter Selinger 2001-2019
</metadata>
<g transform="translate(0.000000,128.000000) scale(0.100000,-0.100000)"
fill="#000000" stroke="none">
<path d="M555 1270 c-116 -16 -194 -55 -306 -152 l-70 -60 3 -61 3 -62 65 -17
c243 -66 561 -66 780 1 l55 17 3 60 3 61 -64 60 c-35 33 -86 72 -112 86 -101
57 -242 83 -360 67z"/>
<path d="M90 1057 l5 -184 32 -36 c18 -21 35 -37 38 -37 3 0 5 85 5 188 l0
188 -33 32 c-18 18 -37 32 -42 32 -6 0 -8 -70 -5 -183z"/>
<path d="M1137 1202 l-37 -38 0 -182 c0 -100 4 -182 8 -182 4 0 25 17 45 38
l37 38 0 182 c0 100 -4 182 -8 182 -4 0 -25 -17 -45 -38z"/>
<path d="M185 912 c-3 -3 -5 -33 -5 -66 l0 -61 65 -61 c36 -34 90 -79 120
-100 l55 -37 0 -144 0 -143 215 0 215 0 0 143 1 142 50 34 c27 19 81 63 119
99 l70 64 0 70 c0 63 -2 69 -17 63 -41 -15 -189 -45 -270 -55 -175 -20 -353
-8 -520 34 -50 13 -95 21 -98 18z"/>
<path d="M189 746 c-2 -2 -3 -123 -1 -268 l3 -263 97 -50 c53 -28 100 -51 104
-53 5 -2 8 102 8 231 l0 235 -52 38 c-29 21 -76 60 -104 86 -28 26 -53 46 -55
44z"/>
<path d="M1039 714 c-18 -20 -62 -56 -96 -82 l-63 -46 0 -187 c0 -102 -3 -207
-6 -233 -5 -36 -4 -46 7 -46 8 0 58 23 112 51 l97 52 0 263 c0 145 -4 264 -8
264 -4 0 -24 -16 -43 -36z"/>
<path d="M412 189 l3 -90 109 -49 109 -48 81 35 c45 19 96 42 114 49 l32 14 0
90 0 90 -225 0 -226 0 3 -91z"/>
</g>
</svg>
